<?xml version="1.0" encoding="utf-8"?>
<!-- Generator: Adobe Illustrator 22.0.0, SVG Export Plug-In . SVG Version: 6.00 Build 0)  -->
<svg version="1.1" id="图层_1" xmlns="http://www.w3.org/2000/svg" xmlns:xlink="http://www.w3.org/1999/xlink" x="0px" y="0px"
	 viewBox="0 0 1024 1024" style="enable-background:new 0 0 1024 1024;" xml:space="preserve">
<style type="text/css">
	.st0{fill:#FFFFFF;}
	.st1{fill:#3B434F;}
	.st2{fill:#EDF1F1;}
	.st3{fill:#C1BFBD;}
	.st4{fill:#3B444F;}
	.st5{fill:#F5F3EF;}
	.st6{opacity:5.882400e-02;fill:#3B434F;enable-background:new    ;}
	.st7{opacity:0.1216;enable-background:new    ;}
	.st8{fill:#9EA0A4;}
	.st9{opacity:0.2;fill:#3B434F;enable-background:new    ;}
</style>
<g>
	<path id="body-bg-flat" class="st0" d="M543.9,966.8c0,0-10.3-90.3,78.4-100.4h38v-17.5c0,0,26.7,11.5,53.8,1.3l0.9,16.2h44.4
		c0,0,77.3,7.7,72.6,100.4H543.9z"/>
	<path id="Rounded_Rectangle_13" class="st1" d="M832.6,969.3L832.6,969.3H548.1l0,0h-5.5l1.4-23.5c2.7-45.9,38.9-81,80.3-81h31.5
		v4.7h-29c-39.9,0-74.8,33.7-77.4,78l-1,16.3h283.4l-0.5-16.3c-2.6-44.2-37.5-78-77.4-78h-38.8v-4.7h41.1c41.4,0,77.6,35.1,80.3,81
		l1.4,23.5H832.6z"/>
	<path id="Ellipse_4" class="st1" d="M685.6,917.7c-22.9,0-41.4-18.5-41.4-41.4c0-4,0.6-7.9,1.6-11.5h0.1h4.4h7.6v4.7h-8.7
		c-0.4,2.2-0.6,4.5-0.6,6.8c0,20.5,16.6,37.1,37.1,37.1s37.1-16.6,37.1-37.1c0-2.3-0.2-4.6-0.6-6.8h-8.7v-4.7h7.6h4.4h0.1
		c1.1,3.7,1.6,7.5,1.6,11.5C727,899.2,708.5,917.7,685.6,917.7z"/>
	<path id="neck" class="st1" d="M661.3,847.9v26.3c0,13.7,11.1,24.7,24.7,24.7c13.7,0,24.7-11.1,24.7-24.7v-25.8
		c1.4-0.4,2.9-0.9,4.3-1.4v27.4c0,16.1-13.1,29.2-29.2,29.2c-16.1,0-29.2-13.1-29.2-29.2v-28.2C658.2,846.8,659.7,847.4,661.3,847.9
		z"/>
	<path id="_x32__copy_5" class="st0" d="M687.1,580.2c53.1,0,95,49.6,93.6,109.2l-1.4,63.3c-1.3,56.1-42.5,100.5-92.2,100.5
		c-49.6,0-90.9-44.4-92.2-100.5l-1.4-63.3C592.2,629.8,634,580.2,687.1,580.2z"/>
	<path id="_x32__line" class="st1" d="M785,687.5l-1.5,65.9c-1.3,58.4-44.6,104.6-96.6,104.6c-52,0-95.2-46.2-96.6-104.6l-1.5-65.9
		c-1.4-62,42.5-113.6,98.1-113.6S786.4,625.4,785,687.5z M686.7,580.7c-52.4,0-93.7,49.2-92.3,108.3l1.4,62.8
		c1.3,55.7,41.9,99.7,90.9,99.7c49,0,89.6-44,90.9-99.7L779,689C780.4,629.9,739,580.7,686.7,580.7z"/>
	<path id="Rounded_Rectangle_3" class="st1" d="M676.7,819.6h20.5c0.9,0,1.7,0.8,1.7,1.7c0,0.9-0.8,1.7-1.7,1.7h-20.5
		c-0.9,0-1.7-0.8-1.7-1.7C675,820.4,675.7,819.6,676.7,819.6z"/>
	<path id="_x32_" class="st1" d="M658.7,799.2l2.4-3.3c7.6,4.4,16.7,6.9,26.5,6.9c9.8,0,19-2.6,26.7-7.1l2.5,3.4
		c-8.4,4.8-18.3,7.7-29,7.7C677.1,806.8,667.1,804,658.7,799.2z"/>
	<path id="Shape_11_copy" class="st0" d="M588.7,697.1c0,0-1-0.8-3-1.4c-1-0.3-2.2-0.6-3.6-0.6c-0.3,0-0.7,0-1.1,0
		c-0.4,0-0.7,0-1.1,0.1c-0.8,0.1-1.5,0.2-2.3,0.5c-3.2,0.9-6.4,3.1-8.3,7.7c-0.9,2.3-1.6,5.1-1.7,8.7c0,0.9-0.1,1.8,0,2.8
		c0,1,0.1,2,0.1,3.1c0.2,2.2,0.5,4.5,0.9,7.1c0,0-0.4,7.8,2.4,16.7c2.6,8.7,8.9,19.5,20.5,22.5C590.2,741.9,590.1,719.4,588.7,697.1
		L588.7,697.1z"/>
	<path id="Shape_3" class="st1" d="M590,698c0,0-20.2-6.3-19.5,14.5c0,0,3,30.1,4.3,32.8c0,0,7.9,17.5,21,18.3c12.8,0.8,0,0,0,0
		l0.2,5.6c0,0-23-2.9-27.4-29.4l-3.5-24.1c0,0-2.7-31.8,23.7-23.7c25.7,7.9,0,0,0,0L590,698"/>
	<path id="Shape_4" class="st1" d="M583.4,739.8c0,0-1.1,0.9-2.1,0.9c-1,0-2.1-0.9-2.1-0.9l-2.1-21c0,0,2.9-10.3,15.1-4.9l0.3,6
		c0,0-10.7-3.8-10.5,0.9C582.2,725.4,583.4,739.8,583.4,739.8z"/>
	<path id="Shape_11_copy_x5F_1" class="st0" d="M784.7,697.1c0,0,1.1-0.8,3-1.4c1-0.3,2.2-0.6,3.6-0.6c0.3,0,0.7,0,1.1,0
		c0.4,0,0.7,0,1.1,0.1c0.8,0.1,1.5,0.2,2.3,0.5c3.2,0.9,6.4,3.1,8.3,7.6c1,2.3,1.6,5.1,1.7,8.7c0,0.9,0.1,1.8,0,2.8
		c0,1-0.1,2-0.2,3.1c-0.2,2.2-0.5,4.5-0.9,7.1c0,0,0.4,7.8-2.4,16.7c-2.6,8.7-8.9,19.4-20.6,22.5C783.3,742,783.3,719.4,784.7,697.1
		L784.7,697.1z"/>
	<path id="Shape_3_x5F_1" class="st1" d="M783.4,698c0,0,20.3-6.2,19.6,14.5c0,0-3,30.1-4.3,32.8c0,0-8,17.5-21.1,18.3
		c-12.8,0.8,0,0,0,0l-0.2,5.6c0,0,23.1-2.9,27.5-29.4l3.5-24c0,0,2.7-31.8-23.8-23.7c-25.8,7.9,0,0,0,0L783.4,698"/>
	<path id="Shape_4_x5F_1" class="st1" d="M790.1,739.8c0,0,1.1,0.9,2.1,0.9c1,0,2.1-0.9,2.1-0.9l2.1-21c0,0-2.9-10.3-15.1-4.9
		l-0.3,6c0,0,10.7-3.8,10.5,0.9C791.3,725.4,790.1,739.8,790.1,739.8z"/>
	<path id="new_vector_shape_done" class="st1" d="M694.8,738.1c0.5,0,1,0,1.5,0c3.1,4.2,4.3,10.6,6,16.2c0.5,1.7,0,4.8-0.4,6
		c-1.6,4.5-6.7,4.4-10.9,6.4c-1.1,0.5-2,1.5-3.4,1.7c-0.9-0.8-2.1-1-2.6-2.3c-1.2-1.6,0.3-2.6,1.5-3.2c2.1-1.1,8.6-2.2,9.4-4.3
		c1-1.1,0.3-4.4,0-5.5c-0.8-3-1.2-5.4-2.3-8.1c-0.7-1.8-2.1-3.6-1.3-5.8C692.9,738.9,694.3,738.6,694.8,738.1z"/>
	<path id="Rounded_Rectangle_9" class="st1" d="M632.7,708h15.4c2.1,0,3.8,2.1,3.8,4.6s-1.7,4.6-3.8,4.6h-15.4
		c-2.1,0-3.8-2.1-3.8-4.6S630.6,708,632.7,708z"/>
	<path id="Rounded_Rectangle_9_copy" class="st1" d="M726.6,706.9h15.4c2.1,0,3.8,2.1,3.8,4.6c0,2.5-1.7,4.6-3.8,4.6h-15.4
		c-2.1,0-3.8-2.1-3.8-4.6C722.7,709,724.5,706.9,726.6,706.9z"/>
	<path id="Ellipse_3" class="st2" d="M738.5,733.4c5.9,0,10.7,4.8,10.7,10.7c0,5.9-4.8,10.7-10.7,10.7c-5.9,0-10.7-4.8-10.7-10.7
		C727.9,738.2,732.6,733.4,738.5,733.4z"/>
	<path id="Ellipse_3_copy" class="st2" d="M635.3,733.4c5.9,0,10.7,4.8,10.7,10.7c0,5.9-4.8,10.7-10.7,10.7
		c-5.9,0-10.7-4.8-10.7-10.7C624.6,738.2,629.4,733.4,635.3,733.4z"/>
	<path id="Shape_1_copy_5" class="st1" d="M772.2,694.1v31.6c0,7.7-7.5,19.8-19.8,20.4c-1.8-0.1-38.2,0-38.2,0
		c-16.4,0-19.6-19.6-19.6-19.6v-21.3h-15.4v21.3c0,0-3.2,19.6-19.6,19.6c0,0-36.4-0.1-38.2,0c-12.3-0.7-19.8-12.7-19.8-20.4v-31.6
		h-13.7v-8.5h79.4c0,0,11.9,1.9,11.9,10.2h15.4c0-8.3,11.9-10.2,11.9-10.2h79.4v8.5H772.2z M670.7,698.4c0-3-3.4-3.4-3.4-3.4h-57.2
		v29.9c0,9.3,12.8,12.8,12.8,12.8h35c12,0,12.8-12.8,12.8-12.8S670.7,701.5,670.7,698.4z M763.7,695h-57.2c0,0-3.4,0.4-3.4,3.4
		c0,3,0,26.5,0,26.5s0.8,12.8,12.8,12.8h35c0,0,12.8-3.5,12.8-12.8V695z M751.8,746.2c0.2,0,0.5,0,0.7,0
		C752.6,746.2,752.5,746.2,751.8,746.2z M621.4,746.2c0.2,0,0.5,0,0.7,0C621.4,746.2,621.2,746.2,621.4,746.2z"/>
	<path id="fill_copy" class="st3" d="M594.1,693.1c0,0-3.8-40.6,21.1-62.1c0,0,59.3,58.3,139.9,0c0,0,29,29,26.5,60.6
		c0,0,48.8-56,11.1-66.6c0,0-9.3,2.7-12.8-11.1c-3.5-13.8-10-58.4-98.1-59.7c-88.1-1.4-81.9,52.9-81.9,52.9
		C600.1,607.3,550.9,631.2,594.1,693.1z"/>
	<path id="line" class="st1" d="M782.1,696.3c-1-35.1-26.9-61.4-26.9-61.4c-80.6,55.8-139.5,0-139.5,0c-18.9,14.4-21.3,61-21.3,61
		c-48.7-62.1,2.8-89.4,2.6-89.6c0,0-4.9-56.5,83.2-55c91.8,1.6,98.5,45.8,102.4,61.4c3.1,12.5,14.1,10.2,14.1,10.2
		C835.8,638.1,782.1,696.3,782.1,696.3z M791.4,627.6c0,0-10.4,2.7-14.5-13.7c-3.4-13.8-7-55.4-95.1-56.7s-79.4,52.1-79.4,52.1
		c0.3,0.2-44.3,21.3-11.5,73.8c0,0-1.1-34.4,23.9-55.9c0,0,57.4,60.6,141.2,0.4c0,0,26.6,25.3,28.6,56.3
		C784.6,683.9,823.8,634.7,791.4,627.6z"/>
</g>
<g>
	<path id="Shape_16" class="st4" d="M379.3,775.6c0,0-46.4-55.9,3.4,2.6c49.8,58.4,89.6,23,89.6,23s0-114.6,0-198.8
		s-52.1-87-52.1-87l16.2-4.3c-64.5-26.6-86.6,20-91.7,34.4c-0.9,2.5-1.3,4-1.3,4s-4.6,21,3.8,29"/>
	<path id="Rounded_Rectangle_7" class="st4" d="M313.5,564c59.1,0,107.1,47.9,107.1,107.1v22.2c0,59.1-47.9,107.1-107.1,107.1
		c-59.1,0-107.1-47.9-107.1-107.1v-22.2C206.5,611.9,254.4,564,313.5,564z"/>
	<path id="body-bg-flat_copy" class="st0" d="M171,971.3c0,0-6.6-90,78.1-98.4h38v-17.5c0,0,26.7,11.5,53.8,1.3l0.9,16.2h44.4
		c0,0,76,3,72.5,99.2L171,971.3z"/>
	<path id="Rounded_Rectangle_13_copy_4" class="st1" d="M457.9,974.9H173.4h-5.5l1.4-23.5c2.7-45.9,38.9-81,80.3-81h28.5
		c-1.8,1.5-3.2,3.1-4.2,4.7h-21.8c-39.9,0-74.8,33.7-77.4,78l-1,16.3h283.4l-0.5-16.3c-2.6-44.2-37.5-78-77.4-78h-21.8
		c-0.8-1.6-2-3.2-3.7-4.7h27.8c41.4,0,77.6,35.1,80.3,81l1.4,23.5H457.9z M345.3,875h-1.5v-4.7h1.7
		C345.4,871.5,345.3,873.1,345.3,875z M285.3,870.3h1.8v4.7h-1.5C285.5,873,285.4,871.5,285.3,870.3z"/>
	<path id="Ellipse_5" class="st1" d="M328.9,935.6c1.6,0,3,1.3,3,3c0,1.6-1.3,3-3,3c-1.6,0-3-1.3-3-3
		C325.9,936.9,327.3,935.6,328.9,935.6z"/>
	<path id="Ellipse_5_copy" class="st1" d="M328.9,955.2c1.6,0,3,1.3,3,3c0,1.6-1.3,3-3,3c-1.6,0-3-1.3-3-3
		C325.9,956.6,327.3,955.2,328.9,955.2z"/>
	<path id="Shape_2_copy_9" class="st1" d="M363.5,895.5l-21.8,32.4c-5.9-18.3-23-11.5-23-11.5v54.2c0,1.4-1.3,2.6-3,2.6
		c-1.6,0-3-1.1-3-2.6v-54.2c-0.1-0.1-17.1-6.8-23,11.5l-21.7-32.4c0,0-8.4-21.4,17-30.7c0-9.3,0-9.8,0-9.8h4.8c0,0,0,17.8,0,30.9
		c0.6,5.3,4.3,20.5,25.9,25.4c21.6-5,25.3-20.1,25.9-25.4c0-13.1,0-30.9,0-30.9h4.8c0,0,0,0.5,0,9.8
		C371.9,874.1,363.5,895.5,363.5,895.5z M289.4,898.4c-1.2-1.3-2.8-4.6-2.8-4.6s-1.6-5.3-1.6-7.7c0-2.9,0-6.7,0-10.8
		c-0.4-4.9-1.3-5-1.3-5c-19,9.4-10.7,23.9-10.7,23.9l15.8,24.7c6.2-10.4,12.8-8.5,12.8-8.5C295.8,907.5,291.9,902.8,289.4,898.4z
		 M347.7,870.3c0,0-0.9,0.1-1.3,5c0,4.1,0,7.9,0,10.8c0,2.3-1.6,7.7-1.6,7.7s-1.7,3.3-2.8,4.6c-2.5,4.5-6.3,9.1-12.2,12.1
		c0,0,6.6-1.9,12.8,8.5l15.8-24.7C358.3,894.2,366.7,879.7,347.7,870.3z"/>
	<path id="_x32__copy_5_3_" class="st0" d="M315.9,585.7c53.1,0,95,49.6,93.6,109.2l-1.4,63.3c-1.3,56.1-42.5,100.5-92.2,100.5
		c-49.6,0-90.9-44.4-92.2-100.5l-1.4-63.3C220.9,635.3,262.8,585.7,315.9,585.7z"/>
	<path id="_x32__line_3_" class="st1" d="M413.8,693l-1.5,65.9c-1.3,58.4-44.6,104.6-96.6,104.6c-52,0-95.2-46.2-96.6-104.6
		l-1.5-65.9c-1.4-62,42.5-113.6,98.1-113.6C371.3,579.3,415.2,631,413.8,693z M315.5,586.2c-52.4,0-93.7,49.2-92.3,108.3l1.4,62.8
		c1.3,55.7,42,99.7,90.9,99.7c49,0,89.6-44,90.9-99.7l1.4-62.8C409.1,635.4,367.8,586.2,315.5,586.2z"/>
	<path id="usta" class="st1" d="M361.8,796.6c-7.8,6.7-25.3,13.1-45.7,13.1c-20.4,0-37.9-6.4-45.7-13.1c0,0-0.8-2.2,0.4-3.3
		c1.2-1.2,3-0.9,3-0.9c7.7,6.7,21.9,12.3,42.2,12.3c20.4,0,34.5-5.6,42.2-12.3c0,0,1.9-0.7,2.8,0.2
		C362.9,794.3,361.8,796.6,361.8,796.6z"/>
	<path id="_x2D_" class="st1" d="M302,820h27.3v4.3H302V820z"/>
	<path id="Shape_11_copy_3_" class="st0" d="M217.5,702.6c0,0-1-0.8-3-1.4c-1-0.3-2.2-0.6-3.6-0.6c-0.3,0-0.7,0-1.1,0
		c-0.4,0-0.7,0-1.1,0.1c-0.8,0.1-1.5,0.2-2.3,0.5c-3.2,0.9-6.4,3.1-8.3,7.7c-0.9,2.3-1.6,5.1-1.7,8.7c0,0.9-0.1,1.8,0,2.8
		c0,1,0.1,2,0.1,3.1c0.2,2.2,0.5,4.5,0.9,7.1c0,0-0.4,7.8,2.4,16.7c2.6,8.7,8.9,19.5,20.5,22.5C218.9,747.5,218.9,724.9,217.5,702.6
		L217.5,702.6z"/>
	<path id="Shape_3_3_" class="st1" d="M218.8,703.5c0,0-20.2-6.3-19.5,14.5c0,0,3,30.1,4.3,32.8c0,0,7.9,17.5,21,18.3
		c12.8,0.8,0,0,0,0l0.2,5.6c0,0-23-2.9-27.4-29.4l-3.5-24.1c0,0-2.7-31.8,23.7-23.7c25.7,7.9,0,0,0,0L218.8,703.5"/>
	<path id="Shape_4_3_" class="st1" d="M212.1,745.3c0,0-1.1,0.9-2.1,0.9c-1,0-2.1-0.9-2.1-0.9l-2.1-21c0,0,2.9-10.3,15.1-4.9l0.3,6
		c0,0-10.7-3.8-10.5,0.9C211,730.9,212.1,745.3,212.1,745.3z"/>
	<path id="Shape_11_copy_x5F_1_3_" class="st0" d="M414.5,702.6c0,0,1.1-0.8,3-1.4c1-0.3,2.2-0.6,3.6-0.6c0.3,0,0.7,0,1.1,0
		c0.4,0,0.7,0,1.1,0.1c0.8,0.1,1.5,0.2,2.3,0.5c3.2,0.9,6.4,3.1,8.3,7.6c1,2.3,1.6,5.1,1.7,8.7c0,0.9,0.1,1.8,0,2.8
		c0,1-0.1,2-0.1,3.1c-0.2,2.2-0.5,4.5-0.9,7.1c0,0,0.4,7.8-2.4,16.7c-2.6,8.7-8.9,19.4-20.6,22.5
		C413.1,747.5,413.1,724.9,414.5,702.6L414.5,702.6z"/>
	<path id="Shape_3_x5F_1_3_" class="st1" d="M412.2,703.5c0,0,20.3-6.2,19.6,14.5c0,0-3,30.1-4.3,32.8c0,0-8,17.5-21.1,18.3
		c-12.8,0.8,0,0,0,0l-0.2,5.6c0,0,23.1-2.9,27.5-29.4l3.5-24c0,0,2.7-31.8-23.8-23.7c-25.8,7.9,0,0,0,0L412.2,703.5"/>
	<path id="Shape_4_x5F_1_3_" class="st1" d="M418.8,745.3c0,0,1.1,0.9,2.1,0.9c1,0,2.1-0.9,2.1-0.9l2.1-21c0,0-2.9-10.3-15.1-4.9
		l-0.3,6c0,0,10.7-3.8,10.5,0.9C420,730.9,418.8,745.3,418.8,745.3z"/>
	<path id="new_vector_shape_done_3_" class="st1" d="M323.6,743.6c0.5,0,1,0,1.5,0c3.1,4.2,4.3,10.6,6,16.2c0.5,1.7,0,4.8-0.4,6
		c-1.6,4.5-6.7,4.4-10.9,6.4c-1.1,0.5-2,1.5-3.4,1.7c-0.9-0.8-2.1-1-2.6-2.3c-1.2-1.6,0.3-2.6,1.5-3.2c2.1-1.1,8.6-2.2,9.4-4.3
		c1-1.1,0.3-4.4,0-5.5c-0.8-3-1.2-5.4-2.3-8.1c-0.7-1.8-2.1-3.6-1.3-5.8C321.7,744.4,323,744.1,323.6,743.6z"/>
	<path id="Rounded_Rectangle_8" class="st1" d="M264.5,710.8h6c3.3,0,6,2.7,6,6c0,3.3-2.7,6-6,6h-6c-3.3,0-6-2.7-6-6
		C258.5,713.4,261.2,710.8,264.5,710.8z"/>
	<path id="Rounded_Rectangle_8_copy" class="st1" d="M361.8,710.8h6c3.3,0,6,2.7,6,6c0,3.3-2.7,6-6,6h-6c-3.3,0-6-2.7-6-6
		C355.8,713.4,358.5,710.8,361.8,710.8z"/>
	<path id="Ellipse_3_2_" class="st2" d="M367.3,738.9c5.9,0,10.7,4.8,10.7,10.7s-4.8,10.7-10.7,10.7c-5.9,0-10.7-4.8-10.7-10.7
		S361.4,738.9,367.3,738.9z"/>
	<path id="Ellipse_3_copy_3_" class="st2" d="M264.1,738.9c5.9,0,10.7,4.8,10.7,10.7s-4.8,10.7-10.7,10.7c-5.9,0-10.7-4.8-10.7-10.7
		S258.2,738.9,264.1,738.9z"/>
	<path id="R" class="st1" d="M338.7,691.9l2.5,3.1l1.5,1.9c0,0,27.2-15,46,2.3l2,1c0,0-4.6-25.1-45.3-10.4
		C343.3,690.4,341,691.1,338.7,691.9z"/>
	<path id="L" class="st1" d="M291.7,691.9l-2.5,3.1l-1.5,1.9c0,0-27.2-15-46,2.3l-2,1c0,0,4.6-25,45.3-10.4
		C287.1,690.5,289.3,691.1,291.7,691.9z"/>
	<path id="Rounded_Rectangle_6" class="st1" d="M315.7,636.3v-94.5c0.3,0,0.6,0,0.9,0c59.9,0,108.4,48.5,108.4,108.4V685
		c0,1.2,0,2.4,0,3.6C424.9,688.6,324.3,661.3,315.7,636.3z M206.5,688.6c0-1.2,0-2.4,0-3.6v-34.8c0-59.9,48.5-108.4,108.4-108.4
		c0.3,0,0.6,0,0.9,0v94.5C307.1,661.3,206.5,688.6,206.5,688.6z"/>
</g>
<g>
	<path id="body-bg-flat_1_" class="st0" d="M565.4,492.5c0,0-10.3-90.3,78.4-100.4h38v-17.5c0,0,26.7,11.5,53.8,1.3l0.9,16.2h44.4
		c0,0,77.3,7.7,72.6,100.4H565.4z"/>
	<path id="Rounded_Rectangle_13_copy" class="st1" d="M852.7,494.1L852.7,494.1H568.2l0,0h-5.5l1.4-23.5c2.7-45.9,38.9-81,80.3-81
		h31.5v4.7h-29c-39.9,0-74.8,33.7-77.4,78l-1,16.3h283.4l-0.5-16.3c-2.6-44.2-37.5-78-77.4-78h-38.8v-4.7h41.1
		c41.4,0,77.6,35.1,80.3,81l1.4,23.5H852.7z"/>
	<path id="neck_copy_5" class="st1" d="M686.1,372.7V399c0,13.7,11.1,24.7,24.7,24.7c13.7,0,24.7-11.1,24.7-24.7v-25.8
		c1.4-0.4,2.9-0.9,4.3-1.4v27.4c0,16.1-13.1,29.2-29.2,29.2c-16.1,0-29.2-13.1-29.2-29.2V371C683,371.6,684.5,372.2,686.1,372.7z"/>
	<path id="Rounded_Rectangle_14" class="st1" d="M681.2,423.3c1.5,0,2.8,1.2,2.8,2.8v41.8c0,1.5-1.2,2.8-2.8,2.8s-2.8-1.2-2.8-2.8
		v-41.8C678.4,424.5,679.7,423.3,681.2,423.3z"/>
	<path id="Rounded_Rectangle_15" class="st1" d="M739.4,422.9c1.6,0,3,1.3,3,3v26c0,1.6-1.3,3-3,3c-1.7,0-3-1.3-3-3v-26
		C736.4,424.2,737.8,422.9,739.4,422.9z"/>
	<path id="Rounded_Rectangle_16" class="st1" d="M681.2,467.7c0.8,0,1.5,0.7,1.5,1.5v10.7c0,0.8-0.7,1.5-1.5,1.5
		c-0.8,0-1.5-0.7-1.5-1.5v-10.7C679.7,468.3,680.4,467.7,681.2,467.7z"/>
	<path id="Rounded_Rectangle_16_copy" class="st1" d="M739.6,451.9c0.8,0,1.5,0.7,1.5,1.5V464c0,0.8-0.7,1.5-1.5,1.5
		s-1.5-0.7-1.5-1.5v-10.7C738.2,452.6,738.8,451.9,739.6,451.9z"/>
	<path id="Shape_1_copy" class="st5" d="M665.2,362.2l-27,6.2c0,0-33.1,7.5-11.1,29.8c22,22.3,78.6,26.2,78.6,26.2
		s-15-7.1-21.3-17.1l-2.1-35.8L665.2,362.2z"/>
	<path id="Shape_1_copy_2" class="st1" d="M706.6,426.6c-1.7,2.1-48.8,0.7-81.5-27.7c-23.7-20.6,11.9-32.4,11.9-32.4l26-6l22.6,11.5
		l1.7,34.6C696.9,421.4,709.3,423.1,706.6,426.6z M683.1,408.2l-2.6-36.3l-13.7-7.7l-26,6.4c0,0-31.5,6.5-11.5,25.2
		c21.6,20.2,61.5,25.6,65.7,25.2C699.4,420.6,692.6,423.1,683.1,408.2z"/>
	<path id="Shape_1_copy_4" class="st5" d="M756.5,363.2l27,6.2c0,0,33.1,7.5,11.1,29.9c-22,22.4-78.7,26.3-78.7,26.3
		s15-7.1,21.3-17.1l2.1-35.9L756.5,363.2z"/>
	<path id="Shape_1_copy_6" class="st1" d="M715.1,427.3c1.7,2.1,48.9,0.7,81.5-27.8c23.7-20.6-12-32.5-12-32.5l-26-6L736,372.6
		l-1.7,34.7C724.7,422.2,712.4,423.9,715.1,427.3z M738.5,408.9l2.6-36.4l13.7-7.7l26,6.4c0,0,31.5,6.5,11.5,25.2
		c-21.6,20.3-61.6,25.7-65.7,25.2C722.3,421.3,729,423.9,738.5,408.9z"/>
	<path id="_x32__copy_5_2_" class="st0" d="M712.6,105c53.1,0,95,49.6,93.6,109.2l-1.4,63.3c-1.3,56.1-42.5,100.5-92.2,100.5
		c-49.6,0-90.9-44.4-92.2-100.5l-1.4-63.3C617.7,154.6,659.6,105,712.6,105z"/>
	<path id="_x32__line_2_" class="st1" d="M810.5,212.2l-1.5,65.9c-1.3,58.4-44.6,104.6-96.6,104.6c-52,0-95.2-46.2-96.6-104.6
		l-1.5-65.9c-1.4-62,42.5-113.6,98.1-113.6S811.9,150.2,810.5,212.2z M712.2,105.4c-52.4,0-93.7,49.2-92.3,108.3l1.4,62.8
		c1.3,55.7,42,99.7,90.9,99.7c49,0,89.6-44,90.9-99.7l1.4-62.8C805.9,154.6,764.6,105.4,712.2,105.4z"/>
	<path id="_x31__copy_4" class="st6" d="M807.8,223.2l-4.3,70c0,0-18.9,80.8-92.2,90.3v0.1c-0.1,0-0.3,0-0.4-0.1
		c-0.1,0-0.3,0-0.4,0.1v-0.1c-73.2-9.6-92.2-90.3-92.2-90.3l-4.3-70c19,84.3,35,89.6,35,89.6c-3.2-25.6,23-23,23-23
		c16,2.7,28.8,4,38.8,4.5c10.1-0.5,22.8-1.8,38.8-4.5c0,0,26.3-2.5,23,23C772.9,312.8,788.8,307.5,807.8,223.2z M760.4,321.5
		c-1.2-15-10.3-13.8-10.3-13.8c-16.1,4.7-28.8,7.4-38.7,8.7v-0.1c-9.8-1.3-22.4-3.9-38.4-8.6c0,0-9-1.3-10.2,13.7
		c0,0-3.6,14.9,8.5,21.3l15.4,16.2c0,0,10.5,3.3,10.2-9.4c0,0-1.1-9.5,5.1-11.1h9.4v0.3h9.5c6.2,1.6,5.2,11.2,5.2,11.2
		c-0.3,12.8,10.3,9.5,10.3,9.5l15.5-16.3C764,336.5,760.4,321.5,760.4,321.5z"/>
	<path id="usta_2_" class="st1" d="M758.5,315.9c-7.8,6.7-25.3,13.1-45.7,13.1c-20.4,0-37.9-6.4-45.7-13.1c0,0-0.8-2.2,0.4-3.3
		c1.2-1.2,3-0.9,3-0.9c7.7,6.7,21.9,12.3,42.2,12.3c20.4,0,34.5-5.6,42.2-12.3c0,0,1.9-0.7,2.8,0.2
		C759.7,313.6,758.5,315.9,758.5,315.9z"/>
	<path id="_x2D__2_" class="st1" d="M698.8,339.2h27.3v4.3h-27.3V339.2z"/>
	<path id="Shape_11_copy_2_" class="st0" d="M614.2,221.8c0,0-1-0.8-3-1.4c-1-0.3-2.2-0.6-3.6-0.6c-0.3,0-0.7,0-1.1,0
		c-0.4,0-0.7,0-1.1,0.1c-0.8,0.1-1.5,0.2-2.3,0.5c-3.2,0.9-6.4,3.1-8.3,7.7c-0.9,2.3-1.6,5.1-1.7,8.7c0,0.9-0.1,1.8,0,2.8
		c0,1,0.1,2,0.1,3.1c0.2,2.2,0.5,4.5,0.9,7.1c0,0-0.4,7.8,2.4,16.7c2.6,8.7,8.9,19.5,20.5,22.5C615.7,266.7,615.6,244.1,614.2,221.8
		L614.2,221.8z"/>
	<path id="Shape_3_2_" class="st1" d="M615.5,222.7c0,0-20.2-6.3-19.5,14.5c0,0,3,30.1,4.3,32.8c0,0,7.9,17.5,21,18.3
		c12.8,0.8,0,0,0,0l0.2,5.6c0,0-23-2.9-27.4-29.4l-3.5-24.1c0,0-2.7-31.8,23.7-23.7c25.7,7.9,0,0,0,0L615.5,222.7"/>
	<path id="Shape_4_2_" class="st1" d="M608.9,264.5c0,0-1.1,0.9-2.1,0.9c-1,0-2.1-0.9-2.1-0.9l-2.1-21c0,0,2.9-10.3,15.1-4.9l0.3,6
		c0,0-10.7-3.8-10.5,0.9C607.7,250.2,608.9,264.5,608.9,264.5z"/>
	<path id="Shape_11_copy_x5F_1_2_" class="st0" d="M810.2,221.9c0,0,1.1-0.8,3-1.4c1-0.3,2.2-0.6,3.6-0.6c0.3,0,0.7,0,1.1,0
		c0.4,0,0.7,0,1.1,0.1c0.8,0.1,1.5,0.2,2.3,0.5c3.2,0.9,6.4,3.1,8.3,7.6c1,2.3,1.6,5.1,1.7,8.7c0,0.9,0.1,1.8,0,2.8
		c0,1-0.1,2-0.2,3.1c-0.2,2.2-0.5,4.5-0.9,7.1c0,0,0.4,7.8-2.4,16.7c-2.6,8.7-8.9,19.4-20.6,22.5
		C808.8,266.7,808.8,244.2,810.2,221.9L810.2,221.9z"/>
	<path id="Shape_3_x5F_1_2_" class="st1" d="M808.9,222.8c0,0,20.3-6.2,19.6,14.5c0,0-3,30.1-4.3,32.8c0,0-8,17.5-21.1,18.3
		c-12.8,0.8,0,0,0,0l-0.2,5.6c0,0,23.1-2.9,27.5-29.4l3.5-24c0,0,2.7-31.8-23.8-23.7c-25.8,7.9,0,0,0,0L808.9,222.8"/>
	<path id="Shape_4_x5F_1_2_" class="st1" d="M815.6,264.6c0,0,1.1,0.9,2.1,0.9c1,0,2.1-0.9,2.1-0.9l2.1-21c0,0-2.9-10.3-15.1-4.9
		l-0.3,6c0,0,10.7-3.8,10.5,0.9C816.8,250.2,815.6,264.6,815.6,264.6z"/>
	<path id="new_vector_shape_done_2_" class="st1" d="M720.3,262.9c0.5,0,1,0,1.5,0c3.1,4.2,4.3,10.6,6,16.2c0.5,1.7,0,4.8-0.4,6
		c-1.6,4.5-6.7,4.4-10.9,6.4c-1.1,0.5-2,1.5-3.4,1.7c-0.9-0.8-2.1-1-2.6-2.3c-1.2-1.6,0.3-2.6,1.5-3.2c2.1-1.1,8.6-2.2,9.4-4.3
		c1-1.1,0.3-4.4,0-5.5c-0.8-3-1.2-5.4-2.3-8.1c-0.7-1.8-2.1-3.6-1.3-5.8C718.4,263.7,719.8,263.3,720.3,262.9z"/>
	<path id="Rounded_Rectangle_9_1_" class="st1" d="M658.2,232.7h15.4c2.1,0,3.8,2.1,3.8,4.6c0,2.5-1.7,4.6-3.8,4.6h-15.4
		c-2.1,0-3.8-2.1-3.8-4.6C654.4,234.8,656.1,232.7,658.2,232.7z"/>
	<path id="Rounded_Rectangle_9_copy_1_" class="st1" d="M752.1,231.7h15.4c2.1,0,3.8,2.1,3.8,4.6c0,2.5-1.7,4.6-3.8,4.6h-15.4
		c-2.1,0-3.8-2.1-3.8-4.6C748.3,233.8,750,231.7,752.1,231.7z"/>
	<path id="Ellipse_3_copy_2_" class="st7" d="M665.1,258.2c8.2,0,14.9,0.5,14.9,9.8c0,9.6-6.7,9.8-14.9,9.8
		c-8.2,0-14.9-1.8-14.9-9.8C650.1,258.6,656.8,258.2,665.1,258.2z"/>
	<path id="Ellipse_3_copy_2" class="st7" d="M764,258.2c8.2,0,14.9,0.5,14.9,9.8c0,9.6-6.7,9.8-14.9,9.8c-8.2,0-14.9-1.8-14.9-9.8
		C749.1,258.6,755.8,258.2,764,258.2z"/>
	<path id="glasses" class="st4" d="M805.4,217.4c-0.6,4.9-1.1,11-2.1,16.4c-3.2,16.1-17,31.1-40.7,32.8c-23.7,1.7-43.8-10.2-45-26.6
		c-0.2-2.8-0.7-5.9-1.1-8.9c-3.3-1.9-6.8-1.9-10.4,0c-0.4,3.1-1,6.3-1.2,9.2c-1.2,16.5-21.4,28.4-45.1,26.7s-37.6-16.7-40.8-32.9
		c-1.1-5.4-1.6-11.5-2.2-16.4l-3.5-0.3l0.5-6.8l0.9,0.1l21.6,1.6l18.2,1.3l18.3,1.3l28.4,2c2,0.2,3.3,1.1,4.1,2.3
		c4.1,1.8,8,1.8,11.9,0c0.8-1.3,2.2-2.2,4.2-2.5l28.3-2l18.2-1.3L786,212l21.5-1.5l0.8-0.1l0.5,6.8L805.4,217.4z M693.4,224.8
		l-55.7-4c-7.3-0.6-9.9,7.6-10.3,13.8c-0.9,13.2,13.7,24.9,32.8,26.3c19,1.4,35.2-8.2,36.2-21.4
		C696.8,233.3,698.8,229.4,693.4,224.8z M794.7,234.4c-0.4-6.2-3-14.4-10.3-13.8l-55.6,4c-5.4,4.6-3.3,8.5-2.9,14.7
		c0.9,13.1,17.1,22.6,36.1,21.3C781.1,259.2,795.7,247.5,794.7,234.4z"/>
	<path id="Shape_6_copy_3" class="st8" d="M617.2,218.1c0,0,3.3-51.4,35-74.2c0,0,45.8,31.2,117.8,0c0,0,31.9,14.5,36.7,74.2h1.7
		c0,0,9.1-68.4-14.5-95.6c0,0-5.8-20.8-36.7-35.8l-11.1,6.8c0,0-7.5-9.1-27.3-20.5c0,0-14.7,6.5-22.2,17.9l-12-7.7
		c0,0-16.7,7.6-26.5,21.3l-17.9,2.6l-9.4,17.1c0,0-22.4,18.1-15.4,92.2L617.2,218.1z"/>
	<path id="Shape_6_copy" class="st1" d="M811.9,218.1l-8.1-0.4c-4.9-59.7-33.7-70.4-33.7-70.4c-72,31.2-117.8-0.4-117.8-0.4
		c-27.7,23.6-32,71.7-32,71.7l-7.3-2.1c-7-74.1,15.4-93.4,15.4-93.4l10.2-18.8l18.8-2.6c9.8-13.7,27.8-22.2,27.8-22.2l11.2,7.3
		c7.5-11.4,23-17.1,23-17.1c19.9,11.4,27.3,20.1,27.3,20.1l11.5-6.4c30.9,15,39.3,38.8,39.3,38.8C821,149.2,811.9,218.1,811.9,218.1
		z M791.8,123.8c0,0-3.7-18.7-34.6-33.7l-11.5,6.8c0,0-7.4-9.1-27.3-20.5c0,0-13.4,7-20.9,18.3l-12.8-8.1c0,0-15.4,7.2-25.2,20.9
		l-17.1,2.6l-9,16.2c0,0-18.6,14.2-16.6,71.7l0.4-0.4c0,0,5.9-35.7,34.9-57.6c0,0,47.1,32,119.1,0.9c0,0,26.6,12.5,35.8,57.2
		C807.1,198,812.6,152.1,791.8,123.8z"/>
	<path id="new_x5F_vector_x5F_shape_x5F_done_copy" class="st9" d="M713.6,92.2c0.6,0.5,0.3,0.9,0.2,1.5c-0.2,0.9-0.4,1.7-0.6,2.6
		c-0.2,1.3-0.4,2.6-0.4,3.9c0,1.1,0,2.2,0,3.3c0,0.6,0.1,1.2,0.1,1.9c0,0.3,0.1,0.5,0.1,0.8c0,0.1,0,0.1,0,0.2
		c0,0.3,0.1,0.6,0.1,0.9c0.1,0.3,0.1,0.6,0.2,0.9c0.1,0.5,0.1,0.9,0.3,1.4c0,0.1,0,0.2,0,0.3c0.1,0.4,0.1,0.7,0.3,1.1
		c0,0.1,0,0.1,0,0.2c0.2,0.5,0.2,1.1,0.4,1.6c0.3,0.8,0.5,1.7,0.8,2.5c0.2,0.5,0.4,1.1,0.6,1.7c0.3,1,0.8,1.9,1.1,2.9
		c0.2,0.6,0.5,1.1,0.8,1.7c0.7,1.7,1.6,3.3,2.5,4.9c0.3,0.5,0.6,1,0.9,1.5c0.2,0.3,0.4,0.7,0.6,1c0.1,0.2,0.2,0.3,0.3,0.5
		c0.2,0.4,0.5,0.8,0.7,1.2c0.2,0.4,0.5,0.7,0.7,1c0.3,0.4,0.5,0.8,0.8,1.2c0.4,0.7,0.9,1.3,1.4,2c0.5,0.7,1,1.3,1.5,2
		c0.9,1.3,2.1,2.6,3.1,3.9c0.3,0.4,0.7,0.7,1,1.1c0.2,0.2,0.4,0.4,0.5,0.6c0,0.1,0.1,0.2,0.1,0.3c0,0.1,0,0.3,0,0.5
		c0,0.3,0,0.5,0,0.8c0,0.3-0.2,0.6-0.3,0.8c-0.1,0.2-0.3,0.4-0.4,0.5c-0.1,0.1-0.2,0.2-0.3,0.3c-0.3,0.2-0.6,0.4-0.9,0.5
		c-0.3,0.1-0.7-0.2-1-0.5c-0.4-0.5-1-1-1.4-1.6c-0.1-0.1-0.2-0.2-0.3-0.3c-0.5-0.6-1.1-1.2-1.6-1.8c-0.1-0.1-0.2-0.2-0.3-0.4
		c-0.4-0.5-0.8-0.9-1.2-1.4c-1-1.3-2-2.5-2.9-3.8c-0.2-0.3-0.4-0.5-0.6-0.8c-1.4-2.1-2.8-4.2-4-6.4c-0.3-0.6-0.6-1.1-0.9-1.7
		c-0.8-1.6-1.5-3.2-2.2-4.9c-0.1-0.2-0.2-0.5-0.2-0.7c-0.4-1-0.7-1.9-1-2.9c-0.3-1-0.5-2-0.8-3c-0.1-0.2-0.1-0.4-0.2-0.7
		c0-0.1,0-0.2,0-0.2c-0.1-0.2-0.1-0.5-0.2-0.7c-0.2-0.5-0.2-1.1-0.3-1.7c-0.1-0.5-0.2-1.1-0.2-1.6c0-0.1,0-0.2-0.1-0.3
		c0-0.4-0.1-0.7-0.1-1c0-0.6-0.1-1.2-0.1-1.8c0-0.7,0-1.5,0-2.3c0-0.8,0.1-1.5,0.1-2.2c0.1-2.1,0.5-4.1,1-6.2
		c0.2-0.8,0.5-1.5,0.7-2.3c0.2-0.5,0.4-1,0.6-1.6c0-0.1,0.1-0.2,0.2-0.4c0.1-0.3,0.3-0.7,0.5-0.9c0.1-0.1,0.4-0.1,0.5-0.1
		C713.4,92.1,713.5,92.2,713.6,92.2z M693.5,106.9c0.5,0.3,0.4,0.8,0.4,1.2c0,0.4,0.1,0.8,0.1,1.3c0,0.3,0.1,0.6,0.1,0.9
		c0,0.2,0.1,0.5,0.1,0.7c0,0.2,0.1,0.5,0.1,0.7c0,0.3,0.1,0.5,0.1,0.8c0.1,0.2,0.1,0.5,0.2,0.7c0.2,0.7,0.3,1.5,0.5,2.2
		c0.2,0.7,0.4,1.5,0.7,2.3c0.3,1,0.7,1.9,1,2.9c0.2,0.5,0.4,1,0.6,1.4c0.2,0.4,0.3,0.8,0.5,1.2c0.7,1.5,1.5,3,2.3,4.6
		c0.6,1.2,1.4,2.4,2.1,3.5c0.2,0.4,0.5,0.7,0.7,1c0.5,0.8,1.1,1.6,1.7,2.5c0.5,0.8,1.1,1.5,1.7,2.3c0.1,0.1,0.2,0.2,0.3,0.3
		c0.3,0.4,0.6,0.8,0.9,1.2c0.2,0.2,0.3,0.3,0.5,0.5c0.3,0.5,0.5,1.3,0.3,1.8c-0.3,0.9-1.1,1.5-1.8,1.8c-0.2,0.1-0.5,0.2-0.7,0.1
		c-0.3-0.1-0.6-0.4-0.8-0.7c-0.3-0.3-0.6-0.6-0.8-0.9c-0.5-0.6-1-1.1-1.5-1.8c-1-1.3-2-2.5-2.8-3.8c-2-3-3.7-6-5-9.2
		c-0.5-1.3-1-2.6-1.4-3.9c-0.2-0.5-0.2-1-0.4-1.4c-0.2-0.6-0.3-1.3-0.5-1.9c0-0.1,0-0.2,0-0.3c0-0.1-0.1-0.3-0.1-0.4
		c0-0.1,0-0.2,0-0.4c-0.1-0.2-0.1-0.5-0.1-0.7c0-0.2-0.1-0.5-0.1-0.7c0-0.2-0.1-0.3-0.1-0.5c0-0.6-0.2-1.3-0.2-1.9
		c0-0.2-0.1-0.3-0.1-0.5c0-0.6-0.1-1.2-0.1-1.9c0-0.7,0-1.4,0-2.1c0-0.3,0.1-0.5,0.1-0.8c0-0.3,0.1-0.6,0.1-0.9c0-0.2,0-0.4,0.1-0.6
		c0.1-0.2,0.3-0.5,0.4-0.6c0.1-0.1,0.4-0.1,0.5-0.1C693.4,106.8,693.4,106.9,693.5,106.9z M678.2,110.1c0.5,0.4,0.4,0.8,0.4,1.3
		c0,0.7,0.1,1.5,0.1,2.2c0,0.6,0.2,1.2,0.2,1.8c0,0.2,0.1,0.4,0.1,0.6c0,0.3,0.1,0.7,0.2,1.1c0,0.1,0,0.2,0,0.2
		c0,0.2,0.1,0.4,0.1,0.5c0,0.1,0,0.2,0,0.3c0.1,0.4,0.2,0.9,0.3,1.3c0.3,1,0.6,2,0.9,3c0.8,2.1,1.8,4.2,2.9,6.3
		c0.4,0.7,0.8,1.3,1.2,2c0.2,0.3,0.4,0.5,0.5,0.8c0.5,0.8,1,1.5,1.5,2.3c0.7,1.1,1.6,2,2.3,3c0.3,0.4,0.6,0.7,0.8,1
		c0.2,0.3,0.5,0.5,0.8,0.9c0.5,0.6,1.1,1.2,1.6,1.8c0.3,0.4,0.6,0.6,0.9,1c0.3,0.4,0.7,0.7,1,1c0.1,0.1,0.2,0.1,0.2,0.2
		c0.3,0.4,0.8,0.7,1.1,1.1c0.1,0.2,0.3,0.2,0.5,0.4c0.5,0.5,1.1,1,1.6,1.5c0.1,0.2,0.3,0.3,0.4,0.4c0.1,0,0.1,0.1,0.2,0.1
		c0.2,0.2,0.4,0.4,0.6,0.5c0.1,0,0.1,0.1,0.2,0.1c0.3,0.3,0.7,0.5,1,0.8c0.1,0.1,0.1,0.1,0.2,0.2c0.4,0.4,0.9,0.7,1.3,1.1
		c0.2,0.1,0.3,0.2,0.5,0.4c0.1,0.1,0.2,0.2,0.3,0.3c0.2,0.3,0.6,0.5,0.9,0.7c0.2,0.1,0.4,0.3,0.5,0.4c0.1,0.1,0.3,0.2,0.4,0.3
		c0.3,0.2,0.7,0.5,1,0.7c0.8,0.6,1.6,1.1,2.3,1.6c0.4,0.3,0.8,0.5,1,0.8c0.1,0.2,0.2,0.4,0.2,0.6c0.1,0.4,0.2,1,0.1,1.5
		c0,0.1-0.1,0.2-0.2,0.4c-0.1,0.2-0.2,0.6-0.5,0.9c-0.2,0.2-0.4,0.4-0.5,0.5c-0.3,0.2-0.6,0.1-1-0.1c-0.1-0.1-0.2-0.2-0.3-0.2
		c-0.5-0.2-1.1-0.7-1.6-1c-0.1,0-0.2-0.2-0.3-0.2c-0.2-0.1-0.4-0.2-0.5-0.4c-0.2-0.1-0.4-0.3-0.6-0.4c-0.2-0.1-0.4-0.2-0.6-0.4
		c-0.1,0-0.1-0.1-0.2-0.1c-0.2-0.1-0.4-0.2-0.6-0.4c-0.2-0.2-0.5-0.4-0.7-0.5c-0.3-0.1-0.6-0.4-0.8-0.6c-0.2-0.2-0.5-0.3-0.7-0.5
		c-0.1-0.1-0.3-0.2-0.4-0.3c-0.3-0.2-0.6-0.4-0.9-0.7c-0.1-0.1-0.3-0.2-0.4-0.3c-0.2-0.2-0.6-0.4-0.8-0.6c-0.1-0.1-0.2-0.1-0.3-0.2
		c-0.2-0.2-0.4-0.3-0.6-0.5c-0.1-0.1-0.2-0.1-0.3-0.2c-0.1-0.1-0.3-0.3-0.4-0.4c-0.1,0-0.1-0.1-0.2-0.1c-0.4-0.4-1-0.8-1.4-1.2
		c-0.1-0.1-0.2-0.2-0.4-0.3c-0.5-0.6-1.2-1-1.7-1.6c-0.1-0.2-0.3-0.2-0.4-0.4c-0.5-0.5-1-1-1.5-1.5c-0.1-0.1-0.1-0.1-0.2-0.2
		c-0.2-0.2-0.5-0.5-0.7-0.7c-0.1-0.1-0.2-0.2-0.3-0.3c-0.7-0.9-1.5-1.6-2.2-2.5c-1.2-1.5-2.4-3-3.3-4.6c-0.2-0.4-0.5-0.7-0.7-1
		c-0.4-0.6-0.8-1.3-1.1-1.9c-0.5-1-1-2-1.5-3.1c-0.3-0.7-0.6-1.5-0.9-2.2c-0.2-0.6-0.4-1.2-0.7-1.8c-0.2-0.6-0.4-1.2-0.6-1.8
		c-0.2-0.6-0.3-1.3-0.5-1.9c-0.1-0.2-0.1-0.5-0.1-0.8c-0.2-0.6-0.2-1.2-0.3-1.8c-0.4-2.5-0.5-5.1-0.3-7.7c0-0.6,0.2-1.2,0.3-1.8
		c0-0.3,0.1-0.6,0.4-0.8c0.1-0.1,0.4-0.1,0.5-0.1C678.1,110,678.1,110.1,678.2,110.1z"/>
</g>
<g>
	<path id="body-bg-flat_copy_1_" class="st0" d="M164.8,483.5c0,0-6.6-90,78.1-98.4h38v-17.5c0,0,26.7,11.5,53.8,1.3l0.9,16.2h44.4
		c0,0,76,3,72.5,99.2L164.8,483.5z"/>
	<path id="Rounded_Rectangle_13_1_" class="st1" d="M452.1,487.1L452.1,487.1H167.6l0,0h-5.5l1.4-23.5c2.7-45.9,38.9-81,80.3-81
		h31.5v4.7h-29c-39.9,0-74.8,33.7-77.4,78l-1,16.3h283.4l-0.5-16.3c-2.6-44.2-37.5-78-77.4-78h-38.8v-4.7h41.1
		c41.4,0,77.6,35.1,80.3,81l1.4,23.5H452.1z"/>
	<path id="Ellipse_4_1_" class="st1" d="M305.2,435.5c-22.9,0-41.4-18.5-41.4-41.4c0-4,0.6-7.9,1.6-11.5h0.1h4.4h7.6v4.7h-8.7
		c-0.4,2.2-0.6,4.5-0.6,6.8c0,20.5,16.6,37.1,37.1,37.1c20.5,0,37.1-16.6,37.1-37.1c0-2.3-0.2-4.6-0.6-6.8h-8.7v-4.7h7.6h4.4h0.1
		c1.1,3.7,1.6,7.5,1.6,11.5C346.5,417,328,435.5,305.2,435.5z"/>
	<path id="neck_1_" class="st1" d="M280.8,365.7V392c0,13.7,11.1,24.7,24.7,24.7c13.7,0,24.7-11.1,24.7-24.7v-25.8
		c1.4-0.4,2.9-0.9,4.3-1.4v27.4c0,16.1-13.1,29.2-29.2,29.2c-16.1,0-29.2-13.1-29.2-29.2V364C277.7,364.6,279.2,365.2,280.8,365.7z"
		/>
	<path id="_x32__copy_5_1_" class="st0" d="M306.6,98c53.1,0,95,49.6,93.6,109.2l-1.4,63.3c-1.3,56.1-42.5,100.5-92.2,100.5
		s-90.9-44.4-92.2-100.5l-1.4-63.3C211.7,147.6,253.6,98,306.6,98z"/>
	<path id="_x32__line_1_" class="st1" d="M404.5,205.3l-1.5,65.9c-1.3,58.4-44.6,104.6-96.6,104.6c-52,0-95.2-46.2-96.6-104.6
		l-1.5-65.9c-1.4-62,42.5-113.6,98.1-113.6C362,91.6,405.9,143.2,404.5,205.3z M306.2,98.4c-52.4,0-93.7,49.2-92.3,108.3l1.4,62.8
		c1.3,55.7,42,99.7,90.9,99.7c49,0,89.6-44,90.9-99.7l1.4-62.8C399.9,147.7,358.6,98.4,306.2,98.4z"/>
	<path id="_x31__copy_4_1_" class="st6" d="M401.9,216.2l-4.3,70c0,0-19,80.8-92.2,90.3v0.1c-0.1,0-0.3,0-0.4-0.1
		c-0.1,0-0.3,0-0.4,0.1v-0.1c-73.2-9.6-92.2-90.3-92.2-90.3l-4.3-70c19,84.3,35,89.6,35,89.6c-3.2-25.6,23-23,23-23
		c16,2.7,28.8,4,38.8,4.5c10.1-0.5,22.8-1.8,38.8-4.5c0,0,26.3-2.5,23,23C366.9,305.8,382.9,300.5,401.9,216.2z M354.4,314.5
		c-1.2-15-10.3-13.8-10.3-13.8c-16.1,4.7-28.8,7.4-38.7,8.7v-0.1c-9.8-1.3-22.4-3.9-38.4-8.6c0,0-9-1.3-10.2,13.7
		c0,0-3.6,14.9,8.5,21.3l15.4,16.2c0,0,10.5,3.3,10.2-9.4c0,0-1.1-9.5,5.1-11.1h9.4v0.3h9.5c6.2,1.6,5.2,11.2,5.2,11.2
		c-0.3,12.8,10.3,9.5,10.3,9.5l15.5-16.3C358.1,329.5,354.4,314.5,354.4,314.5z"/>
	<path id="usta_1_" class="st1" d="M352.5,308.9c-7.8,6.7-25.3,13.1-45.7,13.1c-20.4,0-37.9-6.4-45.7-13.1c0,0-0.8-2.2,0.4-3.3
		c1.2-1.2,3-0.9,3-0.9c7.7,6.7,21.9,12.3,42.2,12.3c20.4,0,34.5-5.6,42.2-12.3c0,0,1.9-0.7,2.8,0.2
		C353.7,306.6,352.5,308.9,352.5,308.9z"/>
	<path id="_x2D__1_" class="st1" d="M292.8,332.3h27.3v4.3h-27.3V332.3z"/>
	<path id="Shape_11_copy_1_" class="st0" d="M208.2,214.9c0,0-1-0.8-3-1.4c-1-0.3-2.2-0.6-3.6-0.6c-0.3,0-0.7,0-1.1,0
		c-0.4,0-0.7,0-1.1,0.1c-0.8,0.1-1.5,0.2-2.3,0.5c-3.2,0.9-6.4,3.1-8.3,7.7c-0.9,2.3-1.6,5.1-1.7,8.7c0,0.9-0.1,1.8,0,2.8
		c0,1,0.1,2,0.1,3.1c0.2,2.2,0.5,4.5,0.9,7.1c0,0-0.4,7.8,2.4,16.7c2.6,8.7,8.9,19.5,20.5,22.5C209.7,259.7,209.6,237.1,208.2,214.9
		L208.2,214.9z"/>
	<path id="Shape_3_1_" class="st1" d="M209.6,215.8c0,0-20.2-6.3-19.5,14.5c0,0,3,30.1,4.3,32.8c0,0,7.9,17.5,21,18.3
		c12.8,0.8,0,0,0,0l0.2,5.6c0,0-23-2.9-27.4-29.4l-3.5-24.1c0,0-2.7-31.8,23.7-23.7c25.7,7.9,0,0,0,0L209.6,215.8"/>
	<path id="Shape_4_1_" class="st1" d="M202.9,257.5c0,0-1.1,0.9-2.1,0.9c-1,0-2.1-0.9-2.1-0.9l-2.1-21c0,0,2.9-10.3,15.1-4.9l0.3,6
		c0,0-10.7-3.8-10.5,0.9C201.7,243.2,202.9,257.5,202.9,257.5z"/>
	<path id="Shape_11_copy_x5F_1_1_" class="st0" d="M404.2,214.9c0,0,1.1-0.8,3-1.4c1-0.3,2.2-0.6,3.6-0.6c0.3,0,0.7,0,1.1,0
		c0.4,0,0.7,0,1.1,0.1c0.8,0.1,1.5,0.2,2.3,0.5c3.2,0.9,6.4,3.1,8.3,7.6c1,2.3,1.6,5.1,1.7,8.7c0,0.9,0.1,1.8,0,2.8
		c0,1-0.1,2-0.1,3.1c-0.2,2.2-0.5,4.5-0.9,7.1c0,0,0.4,7.8-2.4,16.7c-2.6,8.7-8.9,19.4-20.6,22.5
		C402.8,259.8,402.8,237.2,404.2,214.9L404.2,214.9z"/>
	<path id="Shape_3_x5F_1_1_" class="st1" d="M402.9,215.8c0,0,20.3-6.2,19.6,14.5c0,0-3,30.1-4.3,32.8c0,0-8,17.5-21.1,18.3
		c-12.8,0.8,0,0,0,0l-0.2,5.6c0,0,23.1-2.9,27.5-29.4l3.5-24c0,0,2.7-31.8-23.8-23.7c-25.8,7.9,0,0,0,0L402.9,215.8"/>
	<path id="Shape_4_x5F_1_1_" class="st1" d="M409.6,257.6c0,0,1.1,0.9,2.1,0.9c1,0,2.1-0.9,2.1-0.9l2.1-21c0,0-2.9-10.3-15.1-4.9
		l-0.3,6c0,0,10.7-3.8,10.5,0.9C410.8,243.2,409.6,257.6,409.6,257.6z"/>
	<path id="new_vector_shape_done_1_" class="st1" d="M314.3,255.9c0.5,0,1,0,1.5,0c3.1,4.2,4.3,10.6,6,16.2c0.5,1.7,0,4.8-0.4,6
		c-1.6,4.5-6.7,4.4-10.9,6.4c-1.1,0.5-2,1.5-3.4,1.7c-0.9-0.8-2.1-1-2.6-2.3c-1.2-1.6,0.3-2.6,1.5-3.2c2.1-1.1,8.6-2.2,9.4-4.3
		c1-1.1,0.3-4.4,0-5.5c-0.8-3-1.2-5.4-2.3-8.1c-0.7-1.8-2.1-3.6-1.3-5.8C312.4,256.7,313.8,256.4,314.3,255.9z"/>
	<path id="Rounded_Rectangle_8_1_" class="st1" d="M255.2,223h6c3.3,0,6,2.7,6,6c0,3.3-2.7,6-6,6h-6c-3.3,0-6-2.7-6-6
		C249.3,225.7,251.9,223,255.2,223z"/>
	<path id="Rounded_Rectangle_8_copy_1_" class="st1" d="M352.5,223h6c3.3,0,6,2.7,6,6c0,3.3-2.7,6-6,6h-6c-3.3,0-6-2.7-6-6
		C346.5,225.7,349.2,223,352.5,223z"/>
	<path id="Ellipse_3_1_" class="st2" d="M358.1,251.2c5.9,0,10.7,4.8,10.7,10.7c0,5.9-4.8,10.7-10.7,10.7c-5.9,0-10.7-4.8-10.7-10.7
		C347.4,256,352.2,251.2,358.1,251.2z"/>
	<path id="Ellipse_3_copy_1_" class="st2" d="M254.8,251.2c5.9,0,10.7,4.8,10.7,10.7c0,5.9-4.8,10.7-10.7,10.7
		c-5.9,0-10.7-4.8-10.7-10.7C244.1,256,248.9,251.2,254.8,251.2z"/>
	<path id="R_copy" class="st1" d="M333.8,208c0,0,25.5-14.6,43.8,1.5l4.8,0.7c0,0-6.2-22.5-51.2-7.9l1.3,4.2 M333.4,206.5
		c0,0,26-14.9,43.1,3.9l8.8-0.3c0,0-11-24-56.2-8.9l4.3,6.2"/>
	<path id="R_copy_3" class="st1" d="M278.9,208.1c0,0-25.5-14.5-43.6,1.5l-4.8,0.7c0,0,6.2-22.3,51-7.8l-1.2,4.2 M279.2,206.6
		c0,0-25.9-14.8-43,3.9l-8.8-0.2c0,0,11-23.8,56-8.8l-4.2,6.1"/>
	<path id="Shape_1" class="st1" d="M214.4,259.5c0,0-43.1-16.9-48.8-42.5c-5.8-25.6-0.8-41.7,6.3-47c0,0-3.1-39.4,11.7-52.1
		c0,0,6.7-28.6,40.6-37.6c0,0,52.7-55.6,148-17.1c0,0,23.5,22.7,37.6,30.9c0.4,0.2,0.8,0.5,1.2,0.7c14,7.6,27.2,23.3,29.8,53.8
		c0,0-0.3,27.2,13.5,45.2c0,0,15.3,47.4-56.9,64l-2.7-65.7c0,0-33.4-11.5-37-41.8c0,0-48.8,15.4-79.4-0.9c0,0-19-5.7-19.9,2.6
		c0,0-6.4,34.4-40.6,43.5L214.4,259.5z"/>
</g>
</svg>
